<svg width="24" height="24" viewBox="0 0 24 24" fill="none" xmlns="http://www.w3.org/2000/svg">
<path d="M18.5394 15.67L13.6395 12H10.3527L5.45279 15.67C4.08227 16.69 3.63352 18.26 4.30058 19.68C4.96765 21.09 6.59286 22 8.42426 22H15.5679C17.4115 22 19.0245 21.09 19.6916 19.68C20.3587 18.26 19.9099 16.69 18.5394 15.67ZM14.2095 18.14H9.79478C9.3339 18.14 8.97004 17.83 8.97004 17.46C8.97004 17.09 9.34602 16.78 9.79478 16.78H14.2095C14.6704 16.78 15.0343 17.09 15.0343 17.46C15.0343 17.83 14.6583 18.14 14.2095 18.14Z" fill="black" fill-opacity="0.4"/>
<path d="M19.6993 4.32C19.032 2.91 17.4065 2 15.5746 2H8.4172C6.58539 2 4.9598 2.91 4.29258 4.32C3.63749 5.74 4.08635 7.31 5.45718 8.33L10.3582 12H13.6458L18.5468 8.33C19.9055 7.31 20.3544 5.74 19.6993 4.32ZM14.2038 7.23H9.78803C9.32705 7.23 8.96311 6.92 8.96311 6.55C8.96311 6.18 9.33918 5.87 9.78803 5.87H14.2038C14.6648 5.87 15.0287 6.18 15.0287 6.55C15.0287 6.92 14.6527 7.23 14.2038 7.23Z" fill="black" fill-opacity="0.4"/>
</svg>
