<svg width="24" height="24" viewBox="0 0 24 24" fill="none" xmlns="http://www.w3.org/2000/svg">
<path d="M22 6V8C22 9.83 21.17 10.82 19.5 10.97C19.34 10.99 19.17 11 19 11H5C4.83 11 4.66 10.99 4.5 10.97C2.83 10.82 2 9.83 2 8V6C2 4 3 3 5 3H19C21 3 22 4 22 6Z" fill="black" fill-opacity="0.4"/>
<path d="M5.5 12C4.95 12 4.5 12.4186 4.5 12.9302V19.2093C4.5 21.0698 5 22 7.5 22H16.5C19 22 19.5 21.0698 19.5 19.2093V12.9302C19.5 12.4186 19.05 12 18.5 12H5.5ZM13.82 16.186H10.18C9.77 16.186 9.43 15.8698 9.43 15.4884C9.43 15.107 9.77 14.7907 10.18 14.7907H13.82C14.23 14.7907 14.57 15.107 14.57 15.4884C14.57 15.8698 14.23 16.186 13.82 16.186Z" fill="black" fill-opacity="0.4"/>
</svg>
