<svg width="24" height="24" viewBox="0 0 24 24" fill="none" xmlns="http://www.w3.org/2000/svg">
<path d="M17.2135 22.1133H6.7787C6.35088 22.1133 5.99609 21.6599 5.99609 21.1133C5.99609 20.5666 6.35088 20.1133 6.7787 20.1133H17.2135C17.6413 20.1133 17.9961 20.5666 17.9961 21.1133C17.9961 21.6599 17.6413 22.1133 17.2135 22.1133Z" fill="black" fill-opacity="0.4"/>
<path d="M21.2508 3.8475L16.8191 7.0912C16.232 7.52218 15.3899 7.26132 15.1351 6.56948L13.0412 0.85332C12.6866 -0.133398 11.3239 -0.133398 10.9694 0.85332L8.86433 6.55814C8.60951 7.26132 7.77858 7.52218 7.19139 7.07985L2.75974 3.83616C1.87341 3.20103 0.699018 4.09702 1.06463 5.15178L5.67355 18.3647C5.82865 18.8184 6.24966 19.1133 6.71498 19.1133H17.2734C17.7387 19.1133 18.1597 18.8071 18.3148 18.3647L22.9237 5.15178C23.3004 4.09702 22.126 3.20103 21.2508 3.8475ZM14.7695 14.3158H9.22995C8.7757 14.3158 8.39901 13.9302 8.39901 13.4652C8.39901 13.0002 8.7757 12.6146 9.22995 12.6146H14.7695C15.2238 12.6146 15.6004 13.0002 15.6004 13.4652C15.6004 13.9302 15.2238 14.3158 14.7695 14.3158Z" fill="black" fill-opacity="0.4"/>
</svg>
