<svg width="24" height="24" viewBox="0 0 24 24" fill="none" xmlns="http://www.w3.org/2000/svg">
<path d="M22.9707 12C22.9707 15.8617 19.8964 19 16.1136 19C15.2221 19 14.3662 18.8262 13.5848 18.5071C13.2729 18.3797 13.2144 17.9779 13.4347 17.7229C14.7894 16.1554 15.5421 14.1251 15.5421 12C15.5421 9.86742 14.7823 7.82943 13.4378 6.27786C13.2166 6.0226 13.2746 5.61946 13.5873 5.49188C14.368 5.17344 15.2231 5 16.1136 5C19.8964 5 22.9707 8.13833 22.9707 12Z" fill="black" fill-opacity="0.4"/>
<path d="M13.9707 12C13.9707 14.065 13.1365 15.9317 11.804 17.2033C10.6557 18.3233 9.13904 19 7.4707 19C3.88487 19 0.970703 15.8617 0.970703 12C0.970703 8.13833 3.88487 5 7.4707 5C9.13904 5 10.6557 5.67667 11.804 6.79667C13.1365 8.06833 13.9707 9.935 13.9707 12Z" fill="black" fill-opacity="0.4"/>
</svg>
