<svg width="33" height="32" viewBox="0 0 33 32" fill="none" xmlns="http://www.w3.org/2000/svg">
<path d="M28.1508 10.414L19.1355 3.07802C17.3737 1.65003 14.6209 1.63603 12.8729 3.06402L3.85749 10.414C2.56367 11.464 1.77913 13.564 2.05441 15.216L3.78867 25.772C4.18782 28.138 6.34876 30 8.70239 30H23.2922C25.6183 30 27.8205 28.096 28.2197 25.758L29.9539 15.202C30.2017 13.564 29.4171 11.464 28.1508 10.414ZM17.0296 24.4C17.0296 24.974 16.5616 25.45 15.9973 25.45C15.433 25.45 14.965 24.974 14.965 24.4V20.2C14.965 19.626 15.433 19.15 15.9973 19.15C16.5616 19.15 17.0296 19.626 17.0296 20.2V24.4Z" fill="#333333"/>
</svg>
