<svg width="33" height="32" viewBox="0 0 33 32" fill="none" xmlns="http://www.w3.org/2000/svg">
<path d="M26.237 23.4983L26.8187 28.2922C26.9678 29.5514 25.6405 30.4313 24.5816 29.779L19.4216 26.6538C19.0637 26.4414 18.9742 25.9863 19.1681 25.6222C19.9137 24.2265 20.3164 22.6487 20.3164 21.0709C20.3164 15.5184 15.6336 10.9975 9.87702 10.9975C8.69886 10.9975 7.55053 11.1796 6.47677 11.5437C5.92497 11.7257 5.38809 11.2099 5.52231 10.6334C6.87943 5.11128 12.0991 1 18.3329 1C25.6107 1 31.5015 6.59802 31.5015 13.5007C31.5015 17.5968 29.4285 21.2227 26.237 23.4983Z" fill="#333333"/>
<path d="M18.5015 20.7677C18.5015 22.5661 17.8215 24.2284 16.6778 25.5432C15.1478 27.3567 12.7215 28.5203 10.0015 28.5203L5.96783 30.8627C5.28783 31.2708 4.42237 30.7116 4.5151 29.9409L4.90146 26.9638C2.83056 25.5583 1.50146 23.3066 1.50146 20.7677C1.50146 18.108 2.95419 15.7656 5.17965 14.3752C6.5551 13.4987 8.20874 13 10.0015 13C14.6996 13 18.5015 16.4758 18.5015 20.7677Z" fill="#333333"/>
</svg>
