<svg width="31" height="30" viewBox="0 0 31 30" fill="none" xmlns="http://www.w3.org/2000/svg">
<path d="M17.0601 0.414062C24.1745 0.414114 30.0833 5.81391 30.0835 12.6504C30.0835 16.4294 28.2637 19.7764 25.4556 22.0029L25.8872 25.498V25.501C26.1424 27.6193 23.8617 29.1445 22.0083 28.0312V28.0322L16.7065 24.8809C16.3864 24.8734 16.0692 24.8543 15.7544 24.8271C14.2684 26.34 12.1715 27.2952 9.85791 27.3848L6.65771 29.2861L6.65674 29.2852C5.15132 30.1917 3.32859 28.9246 3.5249 27.252L3.52686 27.2402L3.77002 25.3213C2.02866 23.8565 0.916692 21.7141 0.916504 19.3047C0.916504 16.7622 2.14813 14.5185 4.04541 13.0508C4.04101 12.9161 4.03662 12.7827 4.03662 12.6504C4.03681 5.81388 9.94558 0.414062 17.0601 0.414062ZM9.49951 13.7012C9.33616 13.7012 9.17466 13.7074 9.01514 13.7188C8.85588 13.7301 8.69855 13.7462 8.54346 13.7686C8.15514 13.8244 7.78068 13.9149 7.42236 14.0352C6.92098 14.2036 6.45156 14.432 6.02197 14.7119L6.01318 14.7178C4.41973 15.7359 3.4165 17.4224 3.4165 19.3047C3.41671 21.1001 4.33347 22.7173 5.81299 23.7441C6.19546 24.0098 6.39896 24.4667 6.34033 24.9287L6.11475 26.7002L8.86182 25.0693L9.01123 24.9941C9.16517 24.9288 9.33113 24.8946 9.49951 24.8945C11.4822 24.8945 13.2188 24.0274 14.2954 22.7227L14.3081 22.708C14.3585 22.6487 14.4078 22.5884 14.4556 22.5273C14.6466 22.2829 14.8158 22.0243 14.9614 21.7539C15.0343 21.6188 15.1009 21.4806 15.1616 21.3398C15.2831 21.0583 15.3807 20.7663 15.4507 20.4658C15.5382 20.0903 15.5834 19.7017 15.5835 19.3047C15.5835 19.1161 15.5734 18.9288 15.5532 18.7441C15.2508 15.9731 12.7283 13.7012 9.49951 13.7012ZM17.0601 2.91406C11.5269 2.91406 7.11494 6.82083 6.58936 11.6768C6.59754 11.674 6.60557 11.6707 6.61377 11.668C6.68934 11.6425 6.7658 11.6192 6.84229 11.5957C6.89127 11.5807 6.9404 11.566 6.98975 11.5518C7.08386 11.5246 7.17854 11.4987 7.27393 11.4746C7.30728 11.4662 7.341 11.4592 7.37451 11.4512C7.44426 11.4344 7.51408 11.4174 7.58447 11.4023C7.63927 11.3906 7.69434 11.3799 7.74951 11.3691C7.8147 11.3564 7.88011 11.3443 7.9458 11.333C7.989 11.3256 8.03227 11.3183 8.07568 11.3115C8.14766 11.3002 8.21993 11.2899 8.29248 11.2803C8.3428 11.2736 8.39326 11.2675 8.44385 11.2617C8.50192 11.255 8.56024 11.2497 8.61865 11.2441C8.67713 11.2386 8.73563 11.232 8.79443 11.2275C8.87387 11.2215 8.95368 11.2179 9.03369 11.2139C9.06784 11.2122 9.10198 11.2093 9.13623 11.208C9.25672 11.2033 9.37783 11.2012 9.49951 11.2012C9.93656 11.2012 10.3672 11.2317 10.7886 11.292C12.0529 11.4728 13.235 11.9156 14.2642 12.5635C14.3787 12.6356 14.4914 12.71 14.6021 12.7871C14.823 12.941 15.0355 13.1054 15.2397 13.2783C15.4442 13.4514 15.6404 13.6333 15.8267 13.8242C15.9195 13.9195 16.0101 14.0168 16.0981 14.1162C16.4119 14.4706 16.6921 14.8526 16.939 15.2559C17.0391 15.4194 17.136 15.5851 17.2241 15.7559C17.6564 16.5938 17.9399 17.5162 18.0415 18.4951C18.0691 18.7609 18.0835 19.0311 18.0835 19.3047C18.0835 19.5713 18.0676 19.8347 18.0405 20.0947C18.037 20.128 18.0327 20.1612 18.0288 20.1943C18.0182 20.285 18.0065 20.3751 17.9927 20.4648C17.9872 20.5004 17.9811 20.5359 17.9751 20.5713C17.8652 21.2231 17.6727 21.8483 17.4077 22.4375C17.5091 22.4669 17.6072 22.5081 17.6987 22.5625L23.2856 25.8828L23.2944 25.8877C23.3088 25.8964 23.3174 25.8995 23.3208 25.9004C23.3241 25.9012 23.3269 25.9014 23.3296 25.9014C23.3361 25.9011 23.3512 25.8991 23.3687 25.8877C23.3861 25.8763 23.3962 25.8622 23.4009 25.8525C23.4029 25.8483 23.4047 25.8437 23.4058 25.8379C23.4067 25.8324 23.4076 25.8212 23.4058 25.8037L22.8862 21.5908C22.8296 21.1322 23.0304 20.6794 23.4087 20.4141C25.962 18.6244 27.5835 15.8032 27.5835 12.6504C27.5833 7.35389 22.9586 2.91411 17.0601 2.91406Z" fill="black" fill-opacity="0.4"/>
</svg>
