<svg width="24" height="24" viewBox="0 0 24 24" fill="none" xmlns="http://www.w3.org/2000/svg">
<path d="M18.4704 16.83L18.8604 19.99C18.9604 20.82 18.0704 21.4 17.3604 20.97L13.9004 18.91C13.6604 18.77 13.6004 18.47 13.7304 18.23C14.2304 17.31 14.5004 16.27 14.5004 15.23C14.5004 11.57 11.3604 8.59 7.50038 8.59C6.71038 8.59 5.94038 8.71 5.22038 8.95C4.85038 9.07 4.49038 8.73 4.58038 8.35C5.49038 4.71 8.99038 2 13.1704 2C18.0504 2 22.0004 5.69 22.0004 10.24C22.0004 12.94 20.6104 15.33 18.4704 16.83Z" fill="black" fill-opacity="0.4"/>
<path d="M13.002 15.2298C13.002 16.4198 12.562 17.5198 11.822 18.3898C10.832 19.5898 9.26195 20.3598 7.50195 20.3598L4.89195 21.9098C4.45195 22.1798 3.89195 21.8098 3.95195 21.2998L4.20195 19.3298C2.86195 18.3998 2.00195 16.9098 2.00195 15.2298C2.00195 13.4698 2.94195 11.9198 4.38195 10.9998C5.27195 10.4198 6.34195 10.0898 7.50195 10.0898C10.542 10.0898 13.002 12.3898 13.002 15.2298Z" fill="black" fill-opacity="0.4"/>
</svg>
