<svg width="33" height="32" viewBox="0 0 33 32" fill="none" xmlns="http://www.w3.org/2000/svg">
<path d="M19.1403 4.67953L21.487 9.37287C21.807 10.0262 22.6603 10.6529 23.3803 10.7729L27.6336 11.4795C30.3536 11.9329 30.9936 13.9062 29.0336 15.8529L25.727 19.1595C25.167 19.7195 24.8603 20.7995 25.0336 21.5729L25.9803 25.6662C26.727 28.9062 25.007 30.1595 22.1403 28.4662L18.1536 26.1062C17.4336 25.6795 16.247 25.6795 15.5136 26.1062L11.527 28.4662C8.67362 30.1595 6.94029 28.8929 7.68695 25.6662L8.63362 21.5729C8.80695 20.7995 8.50029 19.7195 7.94029 19.1595L4.63362 15.8529C2.68695 13.9062 3.31362 11.9329 6.03362 11.4795L10.287 10.7729C10.9936 10.6529 11.847 10.0262 12.167 9.37287L14.5136 4.67953C15.7936 2.13286 17.8736 2.13286 19.1403 4.67953Z" fill="#333333" stroke="#333333" stroke-width="2.5" stroke-linecap="round" stroke-linejoin="round"/>
</svg>
