<svg width="33" height="32" viewBox="0 0 33 32" fill="none" xmlns="http://www.w3.org/2000/svg">
<path d="M19.1396 4.67953L21.4862 9.37287C21.8062 10.0262 22.6596 10.6529 23.3796 10.7729L27.6329 11.4795C30.3529 11.9329 30.9929 13.9062 29.0329 15.8529L25.7262 19.1595C25.1662 19.7195 24.8596 20.7995 25.0329 21.5729L25.9796 25.6662C26.7262 28.9062 25.0062 30.1595 22.1396 28.4662L18.1529 26.1062C17.4329 25.6795 16.2462 25.6795 15.5129 26.1062L11.5262 28.4662C8.67289 30.1595 6.93955 28.8929 7.68622 25.6662L8.63289 21.5729C8.80622 20.7995 8.49955 19.7195 7.93955 19.1595L4.63289 15.8529C2.68622 13.9062 3.31289 11.9329 6.03289 11.4795L10.2862 10.7729C10.9929 10.6529 11.8462 10.0262 12.1662 9.37287L14.5129 4.67953C15.7929 2.13286 17.8729 2.13286 19.1396 4.67953Z" stroke="black" stroke-opacity="0.4" stroke-width="2.5" stroke-linecap="round" stroke-linejoin="round"/>
</svg>
